G04 ================== begin FILE IDENTIFICATION RECORD ==================*
G04 Layout Name:  F:/fiver/MAGDA/PCB/DESIGN1.brd*
G04 Film Name:    ASS*
G04 File Format:  Gerber RS274X*
G04 File Origin:  Cadence Allegro 22.1-P001*
G04 Origin Date:  Wed May 29 22:33:15 2024*
G04 *
G04 Layer:  REF DES/ASSEMBLY_TOP*
G04 Layer:  PACKAGE GEOMETRY/ASSEMBLY_TOP*
G04 Layer:  BOARD GEOMETRY/OUTLINE*
G04 *
G04 Offset:    (0.000 0.000)*
G04 Mirror:    No*
G04 Mode:      Positive*
G04 Rotation:  0*
G04 FullContactRelief:  No*
G04 UndefLineWidth:     0.152*
G04 ================== end FILE IDENTIFICATION RECORD ====================*
%FSLAX25Y25*MOMM*%
%IR0*IPPOS*OFA0.00000B0.00000*MIA0B0*SFA1.00000B1.00000*%
%ADD10C,.152*%
G75*
%LPD*%
G75*
G54D10*
G01X1712000Y3393400D02*
Y4282400D01*
X2093000D01*
Y3393400D01*
X1712000D01*
G01X1775500Y4282400D02*
Y3393400D01*
G01X1877400Y3914100D02*
Y3868600D01*
X1880100Y3859100D01*
X1885500Y3852700D01*
X1892300Y3850600D01*
X1899100Y3852700D01*
X1904500Y3859100D01*
X1907200Y3868600D01*
Y3914100D01*
G01X1948100Y3850600D02*
Y3914100D01*
X1940000Y3901400D01*
G01Y3850600D02*
X1956200D01*
G01X1846600Y4218900D02*
G03I-26690J40D01*
G01X4305300Y3390900D02*
Y4279900D01*
X4686300D01*
Y3390900D01*
X4305300D01*
G01X4368800Y4279900D02*
Y3390900D01*
G01X3037800Y3266400D02*
Y4282400D01*
X3418800D01*
Y3266400D01*
X3037800D01*
G01X3101300Y4282400D02*
Y3266400D01*
G01X5501600D02*
Y4282400D01*
X5882600D01*
Y3266400D01*
X5501600D01*
G01X5565100Y4282400D02*
Y3266400D01*
G01X4470700Y3911600D02*
Y3866100D01*
X4473400Y3856600D01*
X4478800Y3850200D01*
X4485600Y3848100D01*
X4492400Y3850200D01*
X4497800Y3856600D01*
X4500500Y3866100D01*
Y3911600D01*
G01X4526500Y3860800D02*
X4530600Y3853400D01*
X4536000Y3849200D01*
X4542100Y3848100D01*
X4547500Y3849200D01*
X4552900Y3854400D01*
X4556300Y3860800D01*
X4557000Y3867100D01*
X4555600Y3874600D01*
X4550900Y3879800D01*
X4546100Y3882000D01*
X4540000D01*
G01X4546100D02*
X4550200Y3885100D01*
X4553600Y3890400D01*
X4554900Y3896800D01*
X4553600Y3903100D01*
X4550200Y3908400D01*
X4544100Y3911600D01*
X4538000Y3910500D01*
X4531900Y3906300D01*
G01X4439900Y4216400D02*
G03I-26650J0D01*
G01X3203300Y3901400D02*
Y3855900D01*
X3206000Y3846400D01*
X3211400Y3840000D01*
X3218200Y3837900D01*
X3225000Y3840000D01*
X3230400Y3846400D01*
X3233100Y3855900D01*
Y3901400D01*
G01X3261100Y3890800D02*
X3265200Y3897200D01*
X3269900Y3900300D01*
X3275400Y3901400D01*
X3282100Y3899300D01*
X3286900Y3894000D01*
X3288200Y3887600D01*
X3287500Y3881300D01*
X3284800Y3876000D01*
X3271300Y3865400D01*
X3265200Y3858000D01*
X3261100Y3847400D01*
X3259800Y3837900D01*
X3288200D01*
G01X3172500Y4218900D02*
G03I-26710J40D01*
G01X5667100Y3901400D02*
Y3855900D01*
X5669800Y3846400D01*
X5675200Y3840000D01*
X5682000Y3837900D01*
X5688800Y3840000D01*
X5694200Y3846400D01*
X5696900Y3855900D01*
Y3901400D01*
G01X5745900Y3837900D02*
Y3901400D01*
X5720900Y3855900D01*
X5754700D01*
G01X5636300Y4218900D02*
G03I-26710J40D01*
G01X0Y5499100D02*
X7500600D01*
Y993100D01*
X0D01*
Y5499100D01*
G01X130400Y1170900D02*
Y1247100D01*
X152400Y1183600D01*
X174400Y1247100D01*
Y1170900D01*
G01X195600D02*
Y1247100D01*
G01X231200D02*
Y1170900D01*
G01Y1209000D02*
X195600D01*
G01X255800Y1168400D02*
X293000Y1224200D01*
G01X274400Y1234400D02*
Y1158200D01*
G01X293000Y1168400D02*
X255800Y1224200D01*
G01X249000Y1196300D02*
X299800D01*
G01X464800Y4177400D02*
X457200Y4173200D01*
X452100Y4168100D01*
X449600Y4162200D01*
X452100Y4155400D01*
X457200Y4150300D01*
X464800Y4145300D01*
X475000Y4143600D01*
X525800D01*
G01X449600Y4099500D02*
X525800D01*
X510600Y4109700D01*
G01X449600D02*
Y4089300D01*
G01X624800Y4434800D02*
Y3804900D01*
X259100D01*
Y4434800D01*
X624800D01*
G01X574000D02*
Y3804900D01*
G01X130400Y5270500D02*
Y5346700D01*
X152400Y5283200D01*
X174400Y5346700D01*
Y5270500D01*
G01X195600D02*
Y5346700D01*
G01X231200D02*
Y5270500D01*
G01Y5308600D02*
X195600D01*
G01X255800Y5268000D02*
X293000Y5323800D01*
G01X274400Y5334000D02*
Y5257800D01*
G01X293000Y5268000D02*
X255800Y5323800D01*
G01X249000Y5295900D02*
X299800D01*
G01X4511500Y1491300D02*
X4515700Y1483700D01*
X4520800Y1478600D01*
X4526700Y1476100D01*
X4533500Y1478600D01*
X4538600Y1483700D01*
X4543600Y1491300D01*
X4545300Y1501500D01*
Y1552300D01*
G01X4570800Y1491300D02*
X4575900Y1482400D01*
X4582600Y1477400D01*
X4590200Y1476100D01*
X4597000Y1477400D01*
X4603800Y1483700D01*
X4608000Y1491300D01*
X4608900Y1499000D01*
X4607200Y1507800D01*
X4601300Y1514200D01*
X4595300Y1516700D01*
X4587700D01*
G01X4595300D02*
X4600400Y1520500D01*
X4604600Y1526900D01*
X4606300Y1534500D01*
X4604600Y1542100D01*
X4600400Y1548500D01*
X4592800Y1552300D01*
X4585200Y1551000D01*
X4577500Y1545900D01*
G01X4254100Y1651400D02*
X4884000D01*
Y1285600D01*
X4254100D01*
Y1651400D01*
G01Y1600600D02*
X4884000D01*
G01X7224600Y1170900D02*
Y1247100D01*
X7246600Y1183600D01*
X7268600Y1247100D01*
Y1170900D01*
G01X7289800D02*
Y1247100D01*
G01X7325400D02*
Y1170900D01*
G01Y1209000D02*
X7289800D01*
G01X7350000Y1168400D02*
X7387200Y1224200D01*
G01X7368600Y1234400D02*
Y1158200D01*
G01X7387200Y1168400D02*
X7350000Y1224200D01*
G01X7343200Y1196300D02*
X7394000D01*
G01X7038400Y4113100D02*
X7046000Y4117300D01*
X7051100Y4122400D01*
X7053600Y4128300D01*
X7051100Y4135100D01*
X7046000Y4140200D01*
X7038400Y4145200D01*
X7028200Y4146900D01*
X6977400D01*
G01X6990100Y4174900D02*
X6982500Y4180000D01*
X6978700Y4185900D01*
X6977400Y4192700D01*
X6979900Y4201200D01*
X6986300Y4207100D01*
X6993900Y4208800D01*
X7001500Y4207900D01*
X7007900Y4204500D01*
X7020600Y4187600D01*
X7029500Y4180000D01*
X7042200Y4174900D01*
X7053600Y4173200D01*
Y4208800D01*
G01X6878300Y3855700D02*
Y4485600D01*
X7244100D01*
Y3855700D01*
X6878300D01*
G01X6929100D02*
Y4485600D01*
M02*
