G04 ================== begin FILE IDENTIFICATION RECORD ==================*
G04 Layout Name:  F:/fiver/MAGDA/PCB/DESIGN1.brd*
G04 Film Name:    TOP*
G04 File Format:  Gerber RS274X*
G04 File Origin:  Cadence Allegro 22.1-P001*
G04 Origin Date:  Wed May 29 22:33:15 2024*
G04 *
G04 Layer:  VIA CLASS/TOP*
G04 Layer:  PIN/TOP*
G04 Layer:  ETCH/TOP*
G04 Layer:  DRAWING FORMAT/TITLE_BLOCK*
G04 Layer:  DRAWING FORMAT/TBLK_TOP*
G04 Layer:  BOARD GEOMETRY/OUTLINE*
G04 Layer:  BOARD GEOMETRY/DESIGN_OUTLINE*
G04 *
G04 Offset:    (0.000 0.000)*
G04 Mirror:    No*
G04 Mode:      Positive*
G04 Rotation:  0*
G04 FullContactRelief:  No*
G04 UndefLineWidth:     0.152*
G04 ================== end FILE IDENTIFICATION RECORD ====================*
%FSLAX25Y25*MOMM*%
%IR0*IPPOS*OFA0.00000B0.00000*MIA0B0*SFA1.00000B1.00000*%
%ADD13C,1.372*%
%ADD10R,1.27X.635*%
%ADD12R,1.372X1.372*%
%ADD11C,3.378*%
%ADD14C,.508*%
%ADD15C,.5*%
%ADD16C,.152*%
%ADD17C,.9*%
G75*
%LPD*%
G75*
G36*
G01X744800Y5397500D02*
X7392500D01*
Y1917500D01*
X6585000Y1110000D01*
X870000D01*
X117500Y1862500D01*
Y4769500D01*
X744800Y5397500D01*
G37*
%LPC*%
G75*
G36*
G01X5813800Y3679200D02*
Y3742600D01*
G02X5877500Y3806400I63700J100D01*
G01X6004500D01*
G02X6033000Y3799600I-141J-63716D01*
G01X6110200D01*
G02X6118400Y3800000I8436J-88688D01*
G02Y3621800I0J-89100D01*
G02X6110200Y3622200I236J89088D01*
G01X6068200D01*
Y3552200D01*
G02X6059700Y3520400I-63693J-11D01*
G02X6068200Y3488600I-55193J-31789D01*
G01Y3425200D01*
G02X6059700Y3393400I-63693J-11D01*
G02X6068200Y3361600I-55193J-31789D01*
G01Y3298200D01*
G02X6004500Y3234400I-63700J-100D01*
G01X5877500D01*
G02X5813800Y3298200I0J63700D01*
G01Y3361600D01*
G02X5822300Y3393400I63693J11D01*
G02X5813800Y3425200I55193J31789D01*
G01Y3488600D01*
G02X5822300Y3520400I63693J11D01*
G02X5813800Y3552200I55193J31789D01*
G01Y3615600D01*
G02X5822300Y3647400I63693J11D01*
G02X5813800Y3679200I55193J31789D01*
G37*
G36*
G01Y3933200D02*
Y3996600D01*
G02X5877500Y4060400I63700J100D01*
G01X6004500D01*
G02X6033000Y4053600I-141J-63716D01*
G01X6114200D01*
G02X6122400Y4054000I8436J-88688D01*
G02Y3875800I0J-89100D01*
G02X6114200Y3876200I236J89088D01*
G01X6033000D01*
G02X6004500Y3869400I-28641J56916D01*
G01X5877500D01*
G02X5813800Y3933200I0J63700D01*
G37*
G36*
G01X5316000Y4060200D02*
Y4250600D01*
G02X5379700Y4314400I63700J100D01*
G01X5506700D01*
G02X5570400Y4250600I0J-63700D01*
G01Y4060200D01*
G02X5561900Y4028400I-63693J-11D01*
G02X5570400Y3996600I-55193J-31789D01*
G01Y3806200D01*
G02X5561900Y3774400I-63693J-11D01*
G02X5570400Y3742600I-55193J-31789D01*
G01Y3679200D01*
G02X5561900Y3647400I-63693J-11D01*
G02X5570400Y3615600I-55193J-31789D01*
G01Y3552200D01*
G02X5561900Y3520400I-63693J-11D01*
G02X5570400Y3488600I-55193J-31789D01*
G01Y3425200D01*
G02X5506700Y3361400I-63700J-100D01*
G01X5379700D01*
G02X5316000Y3425200I0J63700D01*
G01Y3488600D01*
G02X5324500Y3520400I63693J11D01*
G02X5316000Y3552200I55193J31789D01*
G01Y3615600D01*
G02X5324500Y3647400I63693J11D01*
G02X5316000Y3679200I55193J31789D01*
G01Y3742600D01*
G02X5324500Y3774400I63693J11D01*
G02X5316000Y3806200I55193J31789D01*
G01Y3996600D01*
G02X5324500Y4028400I63693J11D01*
G02X5316000Y4060200I55193J31789D01*
G37*
G36*
G01X2233100Y4621900D02*
G02X2310000Y4653700I76836J-76926D01*
G01X3304700D01*
G02X3381600Y4621900I64J-108726D01*
G01X3477200Y4526200D01*
X3570300Y4619400D01*
G02X3647200Y4651200I76836J-76926D01*
G01X4589700D01*
G02X4666600Y4619400I64J-108726D01*
G01X4744700Y4541200D01*
X4797800Y4594400D01*
G02X4874700Y4626200I76836J-76926D01*
G01X5794900D01*
G02X5871800Y4594400I64J-108726D01*
G01X6017900Y4448300D01*
G02X6049700Y4371400I-76926J-76836D01*
G01Y4327600D01*
X6223700D01*
G02X6300600Y4295800I64J-108726D01*
G01X6416000Y4180300D01*
X6910100D01*
G02X6959600Y4203900I49500J-40112D01*
G01X7096800D01*
G02X7160500Y4140200I0J-63700D01*
G01Y4003000D01*
G02X7096800Y3939300I-63700J0D01*
G01X6959600D01*
G02X6910100Y3962900I0J63712D01*
G01X6371000D01*
G02X6294100Y3994700I-64J108726D01*
G01X6178700Y4110200D01*
X5941000D01*
G02X5890100Y4122900I82J108680D01*
G01X5889000Y4123400D01*
X5877500D01*
G02X5813800Y4187200I0J63700D01*
G01Y4250600D01*
G02X5832300Y4295500I63692J19D01*
G01Y4326400D01*
X5749900Y4408800D01*
X4919700D01*
X4853400Y4342500D01*
Y4293000D01*
G02X4871900Y4248200I-45192J-44882D01*
G01Y4184600D01*
G02X4863400Y4152900I-63693J89D01*
G02X4871900Y4121200I-55193J-31789D01*
G01Y4051100D01*
X4970100D01*
G02X5032800Y4025100I0J-88602D01*
G01X5085200Y3972700D01*
G02X5111200Y3910000I-62602J-62700D01*
G01Y3627500D01*
G02X5085200Y3564800I-88602J0D01*
G01X5039100Y3518700D01*
G02X4976400Y3492700I-62700J62602D01*
G01X4836700D01*
G02X4808200Y3486000I-28430J56967D01*
G01X4681200D01*
G02X4664100Y3488300I-141J63669D01*
G03X4651200Y3478500I-2699J-9837D01*
G01Y2211700D01*
X4733400Y2129500D01*
G02X4759400Y2066800I-62602J-62700D01*
G01Y1599700D01*
G02X4803000Y1501500I-88788J-98200D01*
G02X4670700Y1369200I-132300J0D01*
G02X4594600Y1393300I0J132200D01*
G03X4587700Y1392400I-2964J-4177D01*
G02X4538600Y1369200I-49155J40474D01*
G01X4401400D01*
G02X4337700Y1432900I0J63700D01*
G01Y1570100D01*
G02X4350500Y1608500I63730J90D01*
G02X4341300Y1647900I79514J39341D01*
G01Y3605700D01*
G03X4328200Y3615500I-10201J20D01*
G02X4310400Y3613000I-17667J61169D01*
G01X4183400D01*
G02X4156700Y3618800I-146J63682D01*
G01X4090700D01*
G02X4082500Y3618400I-8436J88688D01*
G02Y3796600I0J89100D01*
G02X4090700Y3796200I-236J-89088D01*
G01X4153100D01*
G02X4183400Y3803800I30170J-56083D01*
G01X4310400D01*
G02X4328200Y3801300I133J-63669D01*
G03X4341300Y3811100I2899J9780D01*
G01Y3859700D01*
G03X4328200Y3869500I-10201J20D01*
G02X4310400Y3867000I-17667J61169D01*
G01X4183400D01*
G02X4154700Y3873800I-71J63667D01*
G01X4115700D01*
G02X4107500Y3873400I-8436J88688D01*
G02X4044400Y3899600I0J89085D01*
G03X4030000I-7200J-7236D01*
G01X3651600Y3521200D01*
G02X3608400Y3497400I-62704J62709D01*
G01X3604400Y3496500D01*
Y3425200D01*
G02X3595900Y3393400I-63693J-11D01*
G02X3604400Y3361600I-55193J-31789D01*
G01Y3298200D01*
G02X3540700Y3234400I-63700J-100D01*
G01X3413700D01*
G02X3385200Y3241200I141J63716D01*
G01X3328900D01*
G02X3266200Y3267200I0J88602D01*
G01X3165200Y3368200D01*
X3071400D01*
G02X3042900Y3361400I-28641J56916D01*
G01X2915900D01*
G02X2887400Y3368200I141J63716D01*
G01X2815600D01*
G02X2752900Y3394200I0J88602D01*
G01X2647300Y3499800D01*
G02X2621300Y3562500I62602J62700D01*
G01Y3718700D01*
G03X2603900Y3726000I-10206J60D01*
G01X2526100Y3648200D01*
G02X2463400Y3622200I-62700J62602D01*
G01X2278600D01*
Y3552200D01*
G02X2270100Y3520400I-63693J-11D01*
G02X2278600Y3488600I-55193J-31789D01*
G01Y3425200D01*
G02X2214900Y3361400I-63700J-100D01*
G01X2087900D01*
G02X2024200Y3425200I0J63700D01*
G01Y3488600D01*
Y3490000D01*
Y3495200D01*
X2016100D01*
G02X1953400Y3521200I0J88602D01*
G01X1797600Y3677000D01*
G03X1780300Y3671000I-7178J-7245D01*
G02X1772300Y3647400I-63164J8256D01*
G02X1780800Y3615600I-55193J-31789D01*
G01Y3552200D01*
G02X1717100Y3488400I-63700J-100D01*
G01X1590100D01*
G02X1526400Y3552200I0J63700D01*
G01Y3622200D01*
X1429000D01*
G02X1366300Y3648200I0J88602D01*
G01X1302300Y3712200D01*
G02X1276300Y3774900I62602J62700D01*
G01Y3914900D01*
G02X1302300Y3977600I88602J0D01*
G01X1352300Y4027600D01*
G02X1415000Y4053600I62700J-62602D01*
G01X1526400D01*
Y4130200D01*
X604100D01*
X602900Y4127000D01*
G02X543600Y4086600I-59300J23321D01*
G01X406400D01*
G02X342700Y4150300I0J63700D01*
G01Y4287500D01*
G02X406400Y4351200I63700J0D01*
G01X543600D01*
G02X602900Y4310800I0J-63721D01*
G01X604100Y4307600D01*
X1561600D01*
G02X1590100Y4314400I28641J-56916D01*
G01X1717100D01*
G02X1780800Y4250600I0J-63700D01*
G01Y4187200D01*
G02X1772300Y4155400I-63693J-11D01*
G02X1780800Y4123600I-55193J-31789D01*
G01Y4060200D01*
G02X1772300Y4028400I-63693J-11D01*
G02X1780800Y3996600I-55193J-31789D01*
G01Y3924700D01*
X1784600Y3923700D01*
G02X1824800Y3900600I-22552J-85776D01*
G01X2006800Y3718600D01*
G03X2024200Y3725900I7194J7240D01*
G01Y3742600D01*
G02X2032700Y3774400I63693J11D01*
G02X2024200Y3806200I55193J31789D01*
G01Y3869600D01*
G02X2032700Y3901400I63693J11D01*
G02X2024200Y3933200I55193J31789D01*
G01Y3996600D01*
G02X2032700Y4028400I63693J11D01*
G02X2024200Y4060200I55193J31789D01*
G01Y4123600D01*
G02X2032700Y4155400I63693J11D01*
G02X2024200Y4187200I55193J31789D01*
G01Y4250600D01*
G02X2042700Y4295500I63692J19D01*
G01Y4386400D01*
G02X2074500Y4463300I108726J64D01*
G01X2233100Y4621900D01*
G37*
%LPD*%
G75*
G36*
G01X2798700Y3693300D02*
X2834800Y3729400D01*
G02X2852200Y3722100I7194J-7240D01*
G01Y3679200D01*
G03X2860700Y3647400I63693J-11D01*
G03X2852200Y3615600I55193J-31789D01*
G01Y3570400D01*
G02X2834800Y3563100I-10206J-60D01*
G01X2798700Y3599200D01*
Y3693300D01*
G37*
G36*
G01X1453700Y3876200D02*
X1526400D01*
Y3799600D01*
X1465700D01*
X1453700Y3811600D01*
Y3876200D01*
G37*
G36*
G01X2445300Y4003200D02*
X2605600D01*
G02X2612900Y3985800I60J-10206D01*
G01X2461100Y3834000D01*
G02X2443700Y3840900I-7215J7196D01*
G03X2414800Y3903600I-89068J-3043D01*
G03X2439200Y3964900I-64802J61300D01*
G03X2435600Y3990100I-89118J126D01*
G02X2445300Y4003200I9759J2915D01*
G37*
G36*
G01X2355000Y4436300D02*
X3259700D01*
X3368500Y4327500D01*
Y4295500D01*
G03X3350000Y4250600I45192J-44881D01*
G01Y4187200D01*
G03X3358500Y4155400I63693J-11D01*
G03X3350000Y4123600I55193J-31789D01*
G01Y4060200D01*
G03X3358500Y4028400I63693J-11D01*
G03X3350000Y3996600I55193J-31789D01*
G01Y3926600D01*
X3303800D01*
X3202800Y4027600D01*
G03X3140100Y4053600I-62700J-62602D01*
G01X3106600D01*
Y4123600D01*
G03X3098100Y4155400I-63693J11D01*
G03X3106600Y4187200I-55193J31789D01*
G01Y4250600D01*
G03X3042900Y4314400I-63700J100D01*
G01X2915900D01*
G03X2852200Y4250600I0J-63700D01*
G01Y4180600D01*
X2278600D01*
Y4250600D01*
G03X2260100Y4295500I-63692J19D01*
G01Y4341400D01*
X2355000Y4436300D01*
G37*
G36*
G01X4518700Y1684600D02*
Y2068700D01*
G02X4536100Y2076000I10206J60D01*
G01X4582000Y2030100D01*
Y1636100D01*
G02X4567200Y1627000I-10202J8D01*
G03X4555500Y1631500I-28600J-56900D01*
G03X4532700Y1670600I-85479J-23647D01*
G01X4518700Y1684600D01*
G37*
G36*
G01X4881800Y3746300D02*
G03X4890000Y3745900I8436J88688D01*
G03X4920200Y3751200I-70J89088D01*
G02X4933800Y3741600I3395J-9624D01*
G01Y3670100D01*
X4836700D01*
G03X4808200Y3676800I-28430J-56967D01*
G01X4681200D01*
G03X4664100Y3674500I-141J-63669D01*
G02X4651200Y3684300I-2699J9837D01*
G01Y3725800D01*
X4666900Y3741500D01*
X4669600Y3741000D01*
G03X4681200Y3740000I11247J62680D01*
G01X4808200D01*
G03X4835900Y3746300I86J63669D01*
G01X4881800D01*
G37*
G36*
G01X3117000Y3621800D02*
X3118400D01*
G03X3179200Y3645700I63J89125D01*
G02X3196300Y3638300I6920J-7467D01*
G01Y3576700D01*
X3165200Y3545600D01*
X3106600D01*
Y3611600D01*
G02X3117000Y3621800I10193J9D01*
G37*
G36*
G01X3124000Y3855600D02*
X3204400Y3775200D01*
G03X3231500Y3756600I62879J62572D01*
G02X3234700Y3740100I-4056J-9347D01*
G01X3222300Y3727700D01*
X3222000Y3727500D01*
G02X3204900Y3732200I-7220J7188D01*
G03X3118400Y3800000I-86500J-21279D01*
G01X3117000D01*
G02X3106600Y3810200I-207J10191D01*
G01Y3848300D01*
G02X3124000Y3855600I10206J60D01*
G37*
G36*
G01X4593600Y4000700D02*
X4617500D01*
Y3922400D01*
X4613700Y3921400D01*
G03X4572700Y3898100I21743J-85982D01*
G01X4536100Y3861500D01*
G02X4518700Y3868800I-7194J7240D01*
G01Y3925800D01*
X4593600Y4000700D01*
G37*
G36*
G01X3692200Y4433800D02*
X4544700D01*
X4636000Y4342500D01*
Y4293000D01*
G03X4617500Y4248200I45192J-44882D01*
G01Y4178100D01*
X4556900D01*
G03X4494200Y4152100I0J-88602D01*
G01X4391500Y4049400D01*
G02X4374100Y4056800I-7197J7235D01*
G01Y4121200D01*
G03X4365600Y4152900I-63693J-89D01*
G03X4374100Y4184600I-55193J31789D01*
G01Y4248200D01*
G03X4310400Y4311800I-63700J-100D01*
G01X4183400D01*
G03X4158100Y4306600I-98J-63670D01*
G01X4157200Y4306200D01*
X4128200D01*
G03X4120000Y4306600I-8436J-88688D01*
G03X4030900Y4217500I0J-89100D01*
G03X4045100Y4169200I89111J-39D01*
G02X4043800Y4162200I-4247J-2832D01*
G03X4031700Y4152100I50550J-72858D01*
G01X3954800Y4075300D01*
G02X3939900Y4075800I-7218J7176D01*
G03X3872500Y4106600I-67400J-58346D01*
G03X3845400Y4102400I-65J-89110D01*
G02X3832300Y4110100I-3098J9723D01*
G03X3745000Y4181600I-87300J-17546D01*
G03X3736800Y4181200I236J-89088D01*
G01X3604400D01*
Y4250600D01*
G03X3585900Y4295500I-63692J19D01*
G01Y4327500D01*
X3692200Y4433800D01*
G37*
G54D10*
X2151400Y3456900D03*
X1653600D03*
X2151400Y4091900D03*
Y4218900D03*
Y3964900D03*
Y3710900D03*
Y3837900D03*
Y3583900D03*
X1653600Y4218900D03*
Y4091900D03*
Y3964900D03*
Y3837900D03*
Y3710900D03*
Y3583900D03*
X4744700Y3454400D03*
X4246900D03*
X3477200Y3329900D03*
Y3456900D03*
X2979400D03*
Y3329900D03*
X5941000D03*
Y3456900D03*
X5443200D03*
Y3329900D03*
X4744700Y4089400D03*
Y4216400D03*
Y3962400D03*
Y3708400D03*
Y3835400D03*
Y3581400D03*
X4246900Y4216400D03*
Y4089400D03*
Y3962400D03*
Y3835400D03*
Y3708400D03*
Y3581400D03*
X3477200Y4091900D03*
Y4218900D03*
Y3964900D03*
Y3710900D03*
Y3837900D03*
Y3583900D03*
X2979400Y4218900D03*
Y4091900D03*
Y3964900D03*
Y3837900D03*
Y3710900D03*
Y3583900D03*
X5941000Y4091900D03*
Y4218900D03*
Y3964900D03*
Y3710900D03*
Y3837900D03*
Y3583900D03*
X5443200Y4218900D03*
Y4091900D03*
Y3964900D03*
Y3837900D03*
Y3710900D03*
Y3583900D03*
G54D11*
X203200Y1196300D03*
Y5295900D03*
X7297400Y1196300D03*
G54D12*
X475000Y4218900D03*
X4470000Y1501500D03*
X7028200Y4071600D03*
G54D13*
X475000Y4018200D03*
X4670700Y1501500D03*
X7028200Y4272300D03*
G54D14*
X2350100Y3964900D03*
X2354600Y3837900D03*
X4877500Y3707500D03*
X3872500Y4017500D03*
X4107500Y3962500D03*
X3118400Y3710900D03*
X3745000Y4092500D03*
X3592600Y3964900D03*
X4082500Y3707500D03*
X6122400Y3964900D03*
X4120000Y4217500D03*
X6118400Y3710900D03*
X4890000Y3835000D03*
G54D15*
G01X2151400Y3456900D02*
Y3583900D01*
G01X2979400Y3456900D02*
X2815600D01*
X2710000Y3562500D01*
Y3730000D01*
X2817900Y3837900D01*
X2979400D01*
G01X475000Y4218900D02*
X1653600D01*
G01Y4091900D02*
Y4218900D01*
G01Y3710900D02*
Y3583900D01*
G01Y3710900D02*
X1429000D01*
X1365000Y3774900D01*
Y3914900D01*
X1415000Y3964900D01*
X1653600D01*
G01X2151400Y3583900D02*
X2016100D01*
X1762100Y3837900D01*
X1653600D01*
G01X2151400Y3710900D02*
X2463400D01*
X2717400Y3964900D01*
X2979400D01*
G01X2151400D02*
X2350100D01*
G01X2151400Y4091900D02*
X2979400D01*
G01X2151400Y3837900D02*
X2354600D01*
G01X2979400Y3456900D02*
X3201900D01*
G01D02*
X3285000Y3540000D01*
Y3665000D01*
X3330900Y3710900D01*
X3477200D01*
G01Y3329900D02*
X3328900D01*
X3201900Y3456900D01*
G01X3477200Y3583900D02*
Y3456900D01*
G01X4670700Y1501500D02*
Y2066800D01*
X4562500Y2175000D01*
Y3762500D01*
X4635400Y3835400D01*
X4744700D01*
G01X4470000Y1501500D02*
Y1607900D01*
X4430000Y1647900D01*
Y3962500D01*
X4556900Y4089400D01*
X4744700D01*
G01Y3708400D02*
X4876600D01*
X4877500Y3707500D01*
G01X3477200Y3837900D02*
X3267100D01*
X3140100Y3964900D01*
X2979400D01*
G01X3477200Y3837900D02*
X3692900D01*
X3872500Y4017500D01*
G01X4107500Y3962500D02*
X4246800D01*
X4246900Y3962400D01*
G01X2979400Y3710900D02*
Y3583900D01*
G01Y3710900D02*
X3118400D01*
G01X3745000Y4092500D02*
X3579100D01*
X3578500Y4091900D01*
X3477200D01*
G01X3592600Y3964900D02*
X3477200D01*
G01X4082500Y3707500D02*
X4246000D01*
X4246900Y3708400D01*
G01X3477200Y3583900D02*
X3588900D01*
X4094400Y4089400D01*
X4246900D01*
G01X4744700Y3962400D02*
X4970100D01*
X5022500Y3910000D01*
Y3627500D01*
X4976400Y3581400D01*
X4744700D01*
G01X5941000Y3964900D02*
X6122400D01*
G01X4120000Y4217500D02*
X4245800D01*
X4246900Y4216400D01*
G01X5941000Y3710900D02*
X6118400D01*
G01X4890000Y3835000D02*
X4745100D01*
X4744700Y3835400D01*
G54D16*
G01X0Y5499100D02*
X7500600D01*
Y993100D01*
X0D01*
Y5499100D01*
G54D17*
G01X2151400Y4218900D02*
Y4386400D01*
X2310000Y4545000D01*
X3304700D01*
X3477200Y4372500D01*
G01Y4218900D02*
Y4372500D01*
G01D02*
X3647200Y4542500D01*
X4589700D01*
X4744700Y4387500D01*
G01D02*
Y4216400D01*
G01X5941000Y4218900D02*
Y4371400D01*
X5794900Y4517500D01*
X4874700D01*
X4744700Y4387500D01*
G01X5941000Y4218900D02*
X6223700D01*
X6371000Y4071600D01*
X7028200D01*
M02*
