G04 ================== begin FILE IDENTIFICATION RECORD ==================*
G04 Layout Name:  F:/fiver/MAGDA/PCB/DESIGN1.brd*
G04 Film Name:    TSKL*
G04 File Format:  Gerber RS274X*
G04 File Origin:  Cadence Allegro 22.1-P001*
G04 Origin Date:  Wed May 29 22:33:15 2024*
G04 *
G04 Layer:  REF DES/SILKSCREEN_TOP*
G04 Layer:  PACKAGE GEOMETRY/SILKSCREEN_TOP*
G04 Layer:  DRAWING FORMAT/TITLE_BLOCK*
G04 Layer:  DRAWING FORMAT/TBLK_TSLK*
G04 Layer:  BOARD GEOMETRY/OUTLINE*
G04 Layer:  BOARD GEOMETRY/SILKSCREEN_TOP*
G04 *
G04 Offset:    (0.000 0.000)*
G04 Mirror:    No*
G04 Mode:      Positive*
G04 Rotation:  0*
G04 FullContactRelief:  No*
G04 UndefLineWidth:     0.152*
G04 ================== end FILE IDENTIFICATION RECORD ====================*
%FSLAX25Y25*MOMM*%
%IR0*IPPOS*OFA0.00000B0.00000*MIA0B0*SFA1.00000B1.00000*%
%ADD10C,.152*%
G75*
%LPD*%
G75*
G54D10*
G01X1729700Y3393400D02*
Y4282400D01*
X2075200D01*
Y3393400D01*
X1729700D01*
G01X1775500Y4282400D02*
Y3393400D01*
G01X1846600Y4218900D02*
G03I-26690J40D01*
G01X4323100Y3390900D02*
Y4279900D01*
X4668500D01*
Y3390900D01*
X4323100D01*
G01X4368800Y4279900D02*
Y3390900D01*
G01X3055600Y3266400D02*
Y4282400D01*
X3401100D01*
Y3266400D01*
X3055600D01*
G01X3101300Y4282400D02*
Y3266400D01*
G01X5519400D02*
Y4282400D01*
X5864900D01*
Y3266400D01*
X5519400D01*
G01X5565100Y4282400D02*
Y3266400D01*
G01X4439900Y4216400D02*
G03I-26650J0D01*
G01X3172500Y4218900D02*
G03I-26710J40D01*
G01X5636300D02*
G03I-26710J40D01*
G01X0Y5499100D02*
X7500600D01*
Y993100D01*
X0D01*
Y5499100D01*
G01X158300Y1521500D02*
Y1610400D01*
X196800Y1536300D01*
X235400Y1610400D01*
Y1521500D01*
G01X254600D02*
Y1610400D01*
G01X316900D02*
Y1521500D01*
G01Y1565900D02*
X254600D01*
G01X342100Y1518500D02*
X407200Y1583700D01*
G01X374600Y1595600D02*
Y1506700D01*
G01X407200Y1518500D02*
X342100Y1583700D01*
G01X330200Y1551100D02*
X419100D01*
G01X502900Y1196300D02*
G03I-299700J40D01*
G01X689800Y4367800D02*
X697200Y4358900D01*
X706100Y4353000D01*
X716500Y4350000D01*
X728300Y4353000D01*
X737200Y4358900D01*
X746100Y4367800D01*
X749100Y4379600D01*
Y4438900D01*
G01X808300Y4350000D02*
Y4438900D01*
X790600Y4421100D01*
G01Y4350000D02*
X826100D01*
G01X233700Y4460200D02*
Y3774400D01*
X652800D01*
Y4460200D01*
X233700D01*
G01X1716200Y4409400D02*
Y4345700D01*
X1722100Y4332400D01*
X1733900Y4323500D01*
X1748700Y4320500D01*
X1763600Y4323500D01*
X1775400Y4332400D01*
X1781300Y4345700D01*
Y4409400D01*
G01X1837600Y4320500D02*
Y4409400D01*
X1819900Y4391600D01*
G01Y4320500D02*
X1855400D01*
G01X198400Y4820000D02*
Y4908900D01*
X236900Y4834800D01*
X275500Y4908900D01*
Y4820000D01*
G01X294700D02*
Y4908900D01*
G01X357000D02*
Y4820000D01*
G01Y4864400D02*
X294700D01*
G01X382200Y4817000D02*
X447300Y4882200D01*
G01X414700Y4894100D02*
Y4805200D01*
G01X447300Y4817000D02*
X382200Y4882200D01*
G01X370300Y4849600D02*
X459200D01*
G01X502900Y5295900D02*
G03I-299700J0D01*
G01X4314800Y1752800D02*
X4322200Y1743900D01*
X4331100Y1738000D01*
X4341500Y1735000D01*
X4353300Y1738000D01*
X4362200Y1743900D01*
X4371100Y1752800D01*
X4374100Y1764600D01*
Y1823900D01*
G01X4400800Y1752800D02*
X4409600Y1742400D01*
X4421500Y1736500D01*
X4434800Y1735000D01*
X4446700Y1736500D01*
X4458500Y1743900D01*
X4465900Y1752800D01*
X4467400Y1761700D01*
X4464500Y1772000D01*
X4454100Y1779400D01*
X4443700Y1782400D01*
X4430400D01*
G01X4443700D02*
X4452600Y1786900D01*
X4460000Y1794300D01*
X4463000Y1803200D01*
X4460000Y1812000D01*
X4452600Y1819500D01*
X4439300Y1823900D01*
X4425900Y1822400D01*
X4412600Y1816500D01*
G01X4228700Y1260200D02*
X4914500D01*
Y1679300D01*
X4228700D01*
Y1260200D01*
G01X4309600Y4406900D02*
Y4343200D01*
X4315500Y4329900D01*
X4327300Y4321000D01*
X4342100Y4318000D01*
X4357000Y4321000D01*
X4368800Y4329900D01*
X4374700Y4343200D01*
Y4406900D01*
G01X4398500Y4335800D02*
X4407300Y4325400D01*
X4419200Y4319500D01*
X4432500Y4318000D01*
X4444400Y4319500D01*
X4456200Y4326900D01*
X4463600Y4335800D01*
X4465100Y4344700D01*
X4462200Y4355000D01*
X4451800Y4362400D01*
X4441400Y4365400D01*
X4428100D01*
G01X4441400D02*
X4450300Y4369900D01*
X4457700Y4377300D01*
X4460700Y4386200D01*
X4457700Y4395000D01*
X4450300Y4402500D01*
X4437000Y4406900D01*
X4423600Y4405400D01*
X4410300Y4399500D01*
G01X3049700Y4396700D02*
Y4333000D01*
X3055600Y4319700D01*
X3067400Y4310800D01*
X3082200Y4307800D01*
X3097100Y4310800D01*
X3108900Y4319700D01*
X3114800Y4333000D01*
Y4396700D01*
G01X3143000Y4381900D02*
X3151900Y4390800D01*
X3162300Y4395200D01*
X3174100Y4396700D01*
X3188900Y4393700D01*
X3199300Y4386300D01*
X3202300Y4377400D01*
X3200800Y4368500D01*
X3194900Y4361100D01*
X3165200Y4346300D01*
X3151900Y4336000D01*
X3143000Y4321100D01*
X3140000Y4307800D01*
X3202300D01*
G01X5513500Y4396700D02*
Y4333000D01*
X5519400Y4319700D01*
X5531200Y4310800D01*
X5546000Y4307800D01*
X5560900Y4310800D01*
X5572700Y4319700D01*
X5578600Y4333000D01*
Y4396700D01*
G01X5652700Y4307800D02*
Y4396700D01*
X5597900Y4333000D01*
X5672000D01*
G01X7252500Y1521500D02*
Y1610400D01*
X7291000Y1536300D01*
X7329600Y1610400D01*
Y1521500D01*
G01X7348800D02*
Y1610400D01*
G01X7411100D02*
Y1521500D01*
G01Y1565900D02*
X7348800D01*
G01X7436300Y1518500D02*
X7501400Y1583700D01*
G01X7468800Y1595600D02*
Y1506700D01*
G01X7501400Y1518500D02*
X7436300Y1583700D01*
G01X7424400Y1551100D02*
X7513300D01*
G01X7597100Y1196300D02*
G03I-299680J40D01*
G01X6624800Y4412800D02*
X6632200Y4403900D01*
X6641100Y4398000D01*
X6651500Y4395000D01*
X6663300Y4398000D01*
X6672200Y4403900D01*
X6681100Y4412800D01*
X6684100Y4424600D01*
Y4483900D01*
G01X6715200Y4469100D02*
X6724100Y4478000D01*
X6734500Y4482400D01*
X6746300Y4483900D01*
X6761100Y4480900D01*
X6771500Y4473500D01*
X6774500Y4464600D01*
X6773000Y4455700D01*
X6767100Y4448300D01*
X6737400Y4433500D01*
X6724100Y4423200D01*
X6715200Y4408300D01*
X6712200Y4395000D01*
X6774500D01*
G01X7269500Y3830300D02*
Y4516100D01*
X6850400D01*
Y3830300D01*
X7269500D01*
M02*
